<svg version="1.1" viewBox="0.0 0.0 1258.0 776.0" fill="none" stroke="none" stroke-linecap="square" stroke-miterlimit="10" width="1258" height="776" xmlns:xlink="http://www.w3.org/1999/xlink" xmlns="http://www.w3.org/2000/svg"><path fill="#ffffff" fill-opacity="0.0" d="M0 0L1258.0 0L1258.0 776.0L0 776.0L0 0Z" fill-rule="nonzero"/><path stroke="#333333" stroke-width="1.0" stroke-linecap="butt" d="M114.5 729.5L1219.5 729.5" fill-rule="nonzero"/><path stroke="#cccccc" stroke-width="1.0" stroke-linecap="butt" d="M114.5 572.5L1219.5 572.5" fill-rule="nonzero"/><path stroke="#cccccc" stroke-width="1.0" stroke-linecap="butt" d="M114.5 414.5L1219.5 414.5" fill-rule="nonzero"/><path stroke="#cccccc" stroke-width="1.0" stroke-linecap="butt" d="M114.5 257.5L1219.5 257.5" fill-rule="nonzero"/><path stroke="#cccccc" stroke-width="1.0" stroke-linecap="butt" d="M114.5 100.5L1219.5 100.5" fill-rule="nonzero"/><clipPath id="id_0"><path d="M114.8 100.666664L1219.2 100.666664L1219.2 729.2L114.8 729.2L114.8 100.666664Z" clip-rule="nonzero"/></clipPath><path fill="#60c85a" fill-opacity="0.5019608" clip-path="url(#id_0)" d="M114.8 666.3467L143.86316 540.64L172.92632 414.93332L201.98947 697.7733L231.05263 603.49335L260.11578 590.92267L289.17896 616.064L318.2421 609.7787L347.30527 603.49335L376.3684 572.06665L405.43158 578.352L434.49475 546.92535L463.5579 584.6373L492.62106 603.49335L521.6842 100.666664L550.7474 484.072L579.81055 534.3547L608.87366 537.4973L637.9368 533.72614L667.0 540.64L696.0632 559.496L725.12634 603.49335L754.18945 584.6373L783.2526 414.93332L812.3158 440.07468L841.37897 477.78665L870.4421 484.072L899.50525 478.4152L928.5684 471.50134L957.6316 603.49335L986.69476 597.208L1015.7579 600.35065L1044.821 609.7787L1073.8842 608.5216L1102.9474 604.7504L1132.0105 607.89307L1161.0737 604.7504L1190.1368 604.1219L1219.2 603.49335L1219.2 729.2L1190.1368 729.2L1161.0737 729.2L1132.0105 729.2L1102.9474 729.2L1073.8842 729.2L1044.821 729.2L1015.7579 729.2L986.69476 729.2L957.6316 729.2L928.5684 729.2L899.50525 729.2L870.4421 729.2L841.37897 729.2L812.3158 729.2L783.2526 729.2L754.18945 729.2L725.12634 729.2L696.0632 729.2L667.0 729.2L637.9368 729.2L608.87366 729.2L579.81055 729.2L550.7474 729.2L521.6842 729.2L492.62106 729.2L463.5579 729.2L434.49475 729.2L405.43158 729.2L376.3684 729.2L347.30527 729.2L318.2421 729.2L289.17896 729.2L260.11578 729.2L231.05263 729.2L201.98947 729.2L172.92632 729.2L143.86316 729.2L114.8 729.2Z" fill-rule="nonzero"/><path stroke="#60c85a" stroke-width="1.0" stroke-linecap="butt" clip-path="url(#id_0)" d="M114.8 666.3467L143.86316 540.64L172.92632 414.93332L201.98947 697.7733L231.05263 603.49335L260.11578 590.92267L289.17896 616.064L318.2421 609.7787L347.30527 603.49335L376.3684 572.06665L405.43158 578.352L434.49475 546.92535L463.5579 584.6373L492.62106 603.49335L521.6842 100.666664L550.7474 484.072L579.81055 534.3547L608.87366 537.4973L637.9368 533.72614L667.0 540.64L696.0632 559.496L725.12634 603.49335L754.18945 584.6373L783.2526 414.93332L812.3158 440.07468L841.37897 477.78665L870.4421 484.072L899.50525 478.4152L928.5684 471.50134L957.6316 603.49335L986.69476 597.208L1015.7579 600.35065L1044.821 609.7787L1073.8842 608.5216L1102.9474 604.7504L1132.0105 607.89307L1161.0737 604.7504L1190.1368 604.1219L1219.2 603.49335" fill-rule="nonzero"/><path fill="#000000" fill-opacity="0.0" clip-path="url(#id_0)" d="M117.8 666.3467C117.8 668.00354 116.456856 669.3467 114.8 669.3467C113.14314 669.3467 111.8 668.00354 111.8 666.3467C111.8 664.6898 113.14314 663.3467 114.8 663.3467C116.456856 663.3467 117.8 664.6898 117.8 666.3467Z" fill-rule="nonzero"/><path fill="#000000" fill-opacity="0.0" clip-path="url(#id_0)" d="M146.86316 540.64C146.86316 542.2969 145.52002 543.64 143.86316 543.64C142.2063 543.64 140.86316 542.2969 140.86316 540.64C140.86316 538.98315 142.2063 537.64 143.86316 537.64C145.52002 537.64 146.86316 538.98315 146.86316 540.64Z" fill-rule="nonzero"/><path fill="#000000" fill-opacity="0.0" clip-path="url(#id_0)" d="M175.92632 414.93332C175.92632 416.59018 174.58318 417.93332 172.92632 417.93332C171.26945 417.93332 169.92632 416.59018 169.92632 414.93332C169.92632 413.2765 171.26945 411.93332 172.92632 411.93332C174.58318 411.93332 175.92632 413.2765 175.92632 414.93332Z" fill-rule="nonzero"/><path fill="#000000" fill-opacity="0.0" clip-path="url(#id_0)" d="M204.98947 697.7733C204.98947 699.4302 203.64633 700.7733 201.98947 700.7733C200.33263 700.7733 198.98947 699.4302 198.98947 697.7733C198.98947 696.11646 200.33263 694.7733 201.98947 694.7733C203.64633 694.7733 204.98947 696.11646 204.98947 697.7733Z" fill-rule="nonzero"/><path fill="#000000" fill-opacity="0.0" clip-path="url(#id_0)" d="M234.05263 603.49335C234.05263 605.1502 232.70949 606.49335 231.05263 606.49335C229.39578 606.49335 228.05263 605.1502 228.05263 603.49335C228.05263 601.8365 229.39578 600.49335 231.05263 600.49335C232.70949 600.49335 234.05263 601.8365 234.05263 603.49335Z" fill-rule="nonzero"/><path fill="#000000" fill-opacity="0.0" clip-path="url(#id_0)" d="M263.11578 590.92267C263.11578 592.5795 261.77264 593.92267 260.11578 593.92267C258.45892 593.92267 257.11578 592.5795 257.11578 590.92267C257.11578 589.2658 258.45892 587.92267 260.11578 587.92267C261.77264 587.92267 263.11578 589.2658 263.11578 590.92267Z" fill-rule="nonzero"/><path fill="#000000" fill-opacity="0.0" clip-path="url(#id_0)" d="M292.17896 616.064C292.17896 617.7208 290.83582 619.064 289.17896 619.064C287.5221 619.064 286.17896 617.7208 286.17896 616.064C286.17896 614.40717 287.5221 613.064 289.17896 613.064C290.83582 613.064 292.17896 614.40717 292.17896 616.064Z" fill-rule="nonzero"/><path fill="#000000" fill-opacity="0.0" clip-path="url(#id_0)" d="M321.2421 609.7787C321.2421 611.43555 319.89896 612.7787 318.2421 612.7787C316.58527 612.7787 315.2421 611.43555 315.2421 609.7787C315.2421 608.1218 316.58527 606.7787 318.2421 606.7787C319.89896 606.7787 321.2421 608.1218 321.2421 609.7787Z" fill-rule="nonzero"/><path fill="#000000" fill-opacity="0.0" clip-path="url(#id_0)" d="M350.30527 603.49335C350.30527 605.1502 348.96213 606.49335 347.30527 606.49335C345.6484 606.49335 344.30527 605.1502 344.30527 603.49335C344.30527 601.8365 345.6484 600.49335 347.30527 600.49335C348.96213 600.49335 350.30527 601.8365 350.30527 603.49335Z" fill-rule="nonzero"/><path fill="#000000" fill-opacity="0.0" clip-path="url(#id_0)" d="M379.3684 572.06665C379.3684 573.7235 378.02527 575.06665 376.3684 575.06665C374.71158 575.06665 373.3684 573.7235 373.3684 572.06665C373.3684 570.4098 374.71158 569.06665 376.3684 569.06665C378.02527 569.06665 379.3684 570.4098 379.3684 572.06665Z" fill-rule="nonzero"/><path fill="#000000" fill-opacity="0.0" clip-path="url(#id_0)" d="M408.43158 578.352C408.43158 580.00885 407.08844 581.352 405.43158 581.352C403.77472 581.352 402.43158 580.00885 402.43158 578.352C402.43158 576.6951 403.77472 575.352 405.43158 575.352C407.08844 575.352 408.43158 576.6951 408.43158 578.352Z" fill-rule="nonzero"/><path fill="#000000" fill-opacity="0.0" clip-path="url(#id_0)" d="M437.49475 546.92535C437.49475 548.5822 436.15158 549.92535 434.49475 549.92535C432.8379 549.92535 431.49475 548.5822 431.49475 546.92535C431.49475 545.2685 432.8379 543.92535 434.49475 543.92535C436.15158 543.92535 437.49475 545.2685 437.49475 546.92535Z" fill-rule="nonzero"/><path fill="#000000" fill-opacity="0.0" clip-path="url(#id_0)" d="M466.5579 584.6373C466.5579 586.2942 465.21475 587.6373 463.5579 587.6373C461.90103 587.6373 460.5579 586.2942 460.5579 584.6373C460.5579 582.98047 461.90103 581.6373 463.5579 581.6373C465.21475 581.6373 466.5579 582.98047 466.5579 584.6373Z" fill-rule="nonzero"/><path fill="#000000" fill-opacity="0.0" clip-path="url(#id_0)" d="M495.62106 603.49335C495.62106 605.1502 494.2779 606.49335 492.62106 606.49335C490.9642 606.49335 489.62106 605.1502 489.62106 603.49335C489.62106 601.8365 490.9642 600.49335 492.62106 600.49335C494.2779 600.49335 495.62106 601.8365 495.62106 603.49335Z" fill-rule="nonzero"/><path fill="#000000" fill-opacity="0.0" clip-path="url(#id_0)" d="M524.6842 100.666664C524.6842 102.323524 523.34106 103.666664 521.6842 103.666664C520.02734 103.666664 518.6842 102.323524 518.6842 100.666664C518.6842 99.00981 520.02734 97.666664 521.6842 97.666664C523.34106 97.666664 524.6842 99.00981 524.6842 100.666664Z" fill-rule="nonzero"/><path fill="#000000" fill-opacity="0.0" clip-path="url(#id_0)" d="M553.7474 484.072C553.7474 485.72885 552.40424 487.072 550.7474 487.072C549.0905 487.072 547.7474 485.72885 547.7474 484.072C547.7474 482.41513 549.0905 481.072 550.7474 481.072C552.40424 481.072 553.7474 482.41513 553.7474 484.072Z" fill-rule="nonzero"/><path fill="#000000" fill-opacity="0.0" clip-path="url(#id_0)" d="M582.81055 534.3547C582.81055 536.01154 581.4674 537.3547 579.81055 537.3547C578.1537 537.3547 576.81055 536.01154 576.81055 534.3547C576.81055 532.6978 578.1537 531.3547 579.81055 531.3547C581.4674 531.3547 582.81055 532.6978 582.81055 534.3547Z" fill-rule="nonzero"/><path fill="#000000" fill-opacity="0.0" clip-path="url(#id_0)" d="M611.87366 537.4973C611.87366 539.1542 610.5305 540.4973 608.87366 540.4973C607.21686 540.4973 605.87366 539.1542 605.87366 537.4973C605.87366 535.84045 607.21686 534.4973 608.87366 534.4973C610.5305 534.4973 611.87366 535.84045 611.87366 537.4973Z" fill-rule="nonzero"/><path fill="#000000" fill-opacity="0.0" clip-path="url(#id_0)" d="M640.9368 533.72614C640.9368 535.383 639.5937 536.72614 637.9368 536.72614C636.27997 536.72614 634.9368 535.383 634.9368 533.72614C634.9368 532.0693 636.27997 530.72614 637.9368 530.72614C639.5937 530.72614 640.9368 532.0693 640.9368 533.72614Z" fill-rule="nonzero"/><path fill="#000000" fill-opacity="0.0" clip-path="url(#id_0)" d="M670.0 540.64C670.0 542.2969 668.65686 543.64 667.0 543.64C665.34314 543.64 664.0 542.2969 664.0 540.64C664.0 538.98315 665.34314 537.64 667.0 537.64C668.65686 537.64 670.0 538.98315 670.0 540.64Z" fill-rule="nonzero"/><path fill="#000000" fill-opacity="0.0" clip-path="url(#id_0)" d="M699.0632 559.496C699.0632 561.15283 697.72003 562.496 696.0632 562.496C694.4063 562.496 693.0632 561.15283 693.0632 559.496C693.0632 557.8392 694.4063 556.496 696.0632 556.496C697.72003 556.496 699.0632 557.8392 699.0632 559.496Z" fill-rule="nonzero"/><path fill="#000000" fill-opacity="0.0" clip-path="url(#id_0)" d="M728.12634 603.49335C728.12634 605.1502 726.78314 606.49335 725.12634 606.49335C723.4695 606.49335 722.12634 605.1502 722.12634 603.49335C722.12634 601.8365 723.4695 600.49335 725.12634 600.49335C726.78314 600.49335 728.12634 601.8365 728.12634 603.49335Z" fill-rule="nonzero"/><path fill="#000000" fill-opacity="0.0" clip-path="url(#id_0)" d="M757.18945 584.6373C757.18945 586.2942 755.8463 587.6373 754.18945 587.6373C752.5326 587.6373 751.18945 586.2942 751.18945 584.6373C751.18945 582.98047 752.5326 581.6373 754.18945 581.6373C755.8463 581.6373 757.18945 582.98047 757.18945 584.6373Z" fill-rule="nonzero"/><path fill="#000000" fill-opacity="0.0" clip-path="url(#id_0)" d="M786.2526 414.93332C786.2526 416.59018 784.9095 417.93332 783.2526 417.93332C781.59576 417.93332 780.2526 416.59018 780.2526 414.93332C780.2526 413.2765 781.59576 411.93332 783.2526 411.93332C784.9095 411.93332 786.2526 413.2765 786.2526 414.93332Z" fill-rule="nonzero"/><path fill="#000000" fill-opacity="0.0" clip-path="url(#id_0)" d="M815.3158 440.07468C815.3158 441.7315 813.97266 443.07468 812.3158 443.07468C810.65894 443.07468 809.3158 441.7315 809.3158 440.07468C809.3158 438.41782 810.65894 437.07468 812.3158 437.07468C813.97266 437.07468 815.3158 438.41782 815.3158 440.07468Z" fill-rule="nonzero"/><path fill="#000000" fill-opacity="0.0" clip-path="url(#id_0)" d="M844.37897 477.78665C844.37897 479.4435 843.0358 480.78665 841.37897 480.78665C839.7221 480.78665 838.37897 479.4435 838.37897 477.78665C838.37897 476.12982 839.7221 474.78665 841.37897 474.78665C843.0358 474.78665 844.37897 476.12982 844.37897 477.78665Z" fill-rule="nonzero"/><path fill="#000000" fill-opacity="0.0" clip-path="url(#id_0)" d="M873.4421 484.072C873.4421 485.72885 872.09894 487.072 870.4421 487.072C868.7853 487.072 867.4421 485.72885 867.4421 484.072C867.4421 482.41513 868.7853 481.072 870.4421 481.072C872.09894 481.072 873.4421 482.41513 873.4421 484.072Z" fill-rule="nonzero"/><path fill="#000000" fill-opacity="0.0" clip-path="url(#id_0)" d="M902.50525 478.4152C902.50525 480.07205 901.1621 481.4152 899.50525 481.4152C897.8484 481.4152 896.50525 480.07205 896.50525 478.4152C896.50525 476.75833 897.8484 475.4152 899.50525 475.4152C901.1621 475.4152 902.50525 476.75833 902.50525 478.4152Z" fill-rule="nonzero"/><path fill="#000000" fill-opacity="0.0" clip-path="url(#id_0)" d="M931.5684 471.50134C931.5684 473.15817 930.2253 474.50134 928.5684 474.50134C926.91156 474.50134 925.5684 473.15817 925.5684 471.50134C925.5684 469.84448 926.91156 468.50134 928.5684 468.50134C930.2253 468.50134 931.5684 469.84448 931.5684 471.50134Z" fill-rule="nonzero"/><path fill="#000000" fill-opacity="0.0" clip-path="url(#id_0)" d="M960.6316 603.49335C960.6316 605.1502 959.28845 606.49335 957.6316 606.49335C955.97473 606.49335 954.6316 605.1502 954.6316 603.49335C954.6316 601.8365 955.97473 600.49335 957.6316 600.49335C959.28845 600.49335 960.6316 601.8365 960.6316 603.49335Z" fill-rule="nonzero"/><path fill="#000000" fill-opacity="0.0" clip-path="url(#id_0)" d="M989.69476 597.208C989.69476 598.86487 988.35156 600.208 986.69476 600.208C985.0379 600.208 983.69476 598.86487 983.69476 597.208C983.69476 595.55115 985.0379 594.208 986.69476 594.208C988.35156 594.208 989.69476 595.55115 989.69476 597.208Z" fill-rule="nonzero"/><path fill="#000000" fill-opacity="0.0" clip-path="url(#id_0)" d="M1018.7579 600.35065C1018.7579 602.0075 1017.41473 603.35065 1015.7579 603.35065C1014.101 603.35065 1012.7579 602.0075 1012.7579 600.35065C1012.7579 598.6938 1014.101 597.35065 1015.7579 597.35065C1017.41473 597.35065 1018.7579 598.6938 1018.7579 600.35065Z" fill-rule="nonzero"/><path fill="#000000" fill-opacity="0.0" clip-path="url(#id_0)" d="M1047.821 609.7787C1047.821 611.43555 1046.4779 612.7787 1044.821 612.7787C1043.1642 612.7787 1041.821 611.43555 1041.821 609.7787C1041.821 608.1218 1043.1642 606.7787 1044.821 606.7787C1046.4779 606.7787 1047.821 608.1218 1047.821 609.7787Z" fill-rule="nonzero"/><path fill="#000000" fill-opacity="0.0" clip-path="url(#id_0)" d="M1076.8842 608.5216C1076.8842 610.17847 1075.541 611.5216 1073.8842 611.5216C1072.2274 611.5216 1070.8842 610.17847 1070.8842 608.5216C1070.8842 606.86475 1072.2274 605.5216 1073.8842 605.5216C1075.541 605.5216 1076.8842 606.86475 1076.8842 608.5216Z" fill-rule="nonzero"/><path fill="#000000" fill-opacity="0.0" clip-path="url(#id_0)" d="M1105.9474 604.7504C1105.9474 606.4072 1104.6042 607.7504 1102.9474 607.7504C1101.2905 607.7504 1099.9474 606.4072 1099.9474 604.7504C1099.9474 603.09357 1101.2905 601.7504 1102.9474 601.7504C1104.6042 601.7504 1105.9474 603.09357 1105.9474 604.7504Z" fill-rule="nonzero"/><path fill="#000000" fill-opacity="0.0" clip-path="url(#id_0)" d="M1135.0105 607.89307C1135.0105 609.5499 1133.6674 610.89307 1132.0105 610.89307C1130.3536 610.89307 1129.0105 609.5499 1129.0105 607.89307C1129.0105 606.2362 1130.3536 604.89307 1132.0105 604.89307C1133.6674 604.89307 1135.0105 606.2362 1135.0105 607.89307Z" fill-rule="nonzero"/><path fill="#000000" fill-opacity="0.0" clip-path="url(#id_0)" d="M1164.0737 604.7504C1164.0737 606.4072 1162.7306 607.7504 1161.0737 607.7504C1159.4169 607.7504 1158.0737 606.4072 1158.0737 604.7504C1158.0737 603.09357 1159.4169 601.7504 1161.0737 601.7504C1162.7306 601.7504 1164.0737 603.09357 1164.0737 604.7504Z" fill-rule="nonzero"/><path fill="#000000" fill-opacity="0.0" clip-path="url(#id_0)" d="M1193.1368 604.1219C1193.1368 605.77875 1191.7937 607.1219 1190.1368 607.1219C1188.48 607.1219 1187.1368 605.77875 1187.1368 604.1219C1187.1368 602.465 1188.48 601.1219 1190.1368 601.1219C1191.7937 601.1219 1193.1368 602.465 1193.1368 604.1219Z" fill-rule="nonzero"/><path fill="#000000" fill-opacity="0.0" clip-path="url(#id_0)" d="M1222.2 603.49335C1222.2 605.1502 1220.8568 606.49335 1219.2 606.49335C1217.5431 606.49335 1216.2 605.1502 1216.2 603.49335C1216.2 601.8365 1217.5431 600.49335 1219.2 600.49335C1220.8568 600.49335 1222.2 601.8365 1222.2 603.49335Z" fill-rule="nonzero"/><path fill="#60c85a" d="M51.80001 482.15207L43.471886 482.15207L43.471886 485.13644L41.784386 485.13644L41.784386 477.1677L43.471886 477.1677L43.471886 480.13644L51.80001 480.13644L51.80001 482.15207ZM43.55001 475.43332L41.784386 475.43332L41.784386 473.51144L43.55001 473.51144L43.55001 475.43332ZM51.80001 475.43332L44.534386 475.43332L44.534386 473.51144L51.80001 473.51144L51.80001 475.43332ZM44.534386 471.57394L44.534386 469.80832L45.534386 469.80832Q44.378136 468.8552 44.378136 467.5427Q44.378136 466.83957 44.67501 466.32394Q44.95626 465.80832 45.534386 465.4802Q44.95626 465.01144 44.67501 464.46457Q44.378136 463.90207 44.378136 463.27707Q44.378136 462.4802 44.70626 461.93332Q45.01876 461.37082 45.659386 461.08957Q46.11251 460.88644 47.159386 460.88644L51.80001 460.88644L51.80001 462.80832L47.64376 462.80832Q46.565636 462.80832 46.253136 463.01144Q45.846886 463.27707 45.846886 463.83957Q45.846886 464.2302 46.096886 464.58957Q46.33126 464.94894 46.815636 465.1052Q47.284386 465.26144 48.315636 465.26144L51.80001 465.26144L51.80001 467.18332L47.815636 467.18332Q46.76876 467.18332 46.45626 467.2927Q46.14376 467.38644 46.003136 467.6052Q45.846886 467.82394 45.846886 468.18332Q45.846886 468.63644 46.096886 468.99582Q46.33126 469.33957 46.784386 469.49582Q47.221886 469.65207 48.26876 469.65207L51.80001 469.65207L51.80001 471.57394L44.534386 471.57394ZM49.48751 455.2302L49.815636 453.30832Q50.86251 453.68332 51.42501 454.4802Q51.971886 455.27707 51.971886 456.46457Q51.971886 458.3552 50.721886 459.27707Q49.73751 459.99582 48.221886 459.99582Q46.42501 459.99582 45.409386 459.05832Q44.378136 458.1052 44.378136 456.65207Q44.378136 455.0427 45.45626 454.1052Q46.51876 453.1677 48.721886 453.21457L48.721886 458.02707Q49.58126 457.99582 50.065636 457.55832Q50.534386 457.1052 50.534386 456.44894Q50.534386 455.99582 50.284386 455.69894Q50.034386 455.38644 49.48751 455.2302ZM47.55001 455.12082Q46.70626 455.13644 46.284386 455.5427Q45.846886 455.94894 45.846886 456.5427Q45.846886 457.1677 46.30001 457.58957Q46.76876 457.99582 47.55001 457.9802L47.55001 455.12082ZM43.55001 447.43332L41.784386 447.43332L41.784386 445.51144L43.55001 445.51144L43.55001 447.43332ZM51.80001 447.43332L44.534386 447.43332L44.534386 445.51144L51.80001 445.51144L51.80001 447.43332ZM51.80001 436.82394L51.80001 438.74582L48.096886 438.74582Q46.92501 438.74582 46.58126 438.87082Q46.221886 438.99582 46.034386 439.27707Q45.846886 439.5427 45.846886 439.93332Q45.846886 440.43332 46.128136 440.83957Q46.39376 441.2302 46.846886 441.38644Q47.30001 441.52707 48.51876 441.52707L51.80001 441.52707L51.80001 443.44894L44.534386 443.44894L44.534386 441.65207L45.61251 441.65207Q44.378136 440.71457 44.378136 439.26144Q44.378136 438.63644 44.61251 438.1052Q44.83126 437.57394 45.190636 437.30832Q45.55001 437.0427 46.003136 436.93332Q46.440636 436.82394 47.284386 436.82394L51.80001 436.82394ZM44.534386 430.57394L44.534386 428.80832L45.534386 428.80832Q44.378136 427.8552 44.378136 426.5427Q44.378136 425.83957 44.67501 425.32394Q44.95626 424.80832 45.534386 424.4802Q44.95626 424.01144 44.67501 423.46457Q44.378136 422.90207 44.378136 422.27707Q44.378136 421.4802 44.70626 420.93332Q45.01876 420.37082 45.659386 420.08957Q46.11251 419.88644 47.159386 419.88644L51.80001 419.88644L51.80001 421.80832L47.64376 421.80832Q46.565636 421.80832 46.253136 422.01144Q45.846886 422.27707 45.846886 422.83957Q45.846886 423.2302 46.096886 423.58957Q46.33126 423.94894 46.815636 424.1052Q47.284386 424.26144 48.315636 424.26144L51.80001 424.26144L51.80001 426.18332L47.815636 426.18332Q46.76876 426.18332 46.45626 426.2927Q46.14376 426.38644 46.003136 426.6052Q45.846886 426.82394 45.846886 427.18332Q45.846886 427.63644 46.096886 427.99582Q46.33126 428.33957 46.784386 428.49582Q47.221886 428.65207 48.26876 428.65207L51.80001 428.65207L51.80001 430.57394L44.534386 430.57394ZM43.55001 418.43332L41.784386 418.43332L41.784386 416.51144L43.55001 416.51144L43.55001 418.43332ZM51.80001 418.43332L44.534386 418.43332L44.534386 416.51144L51.80001 416.51144L51.80001 418.43332ZM51.80001 414.43332L41.784386 414.43332L41.784386 412.51144L51.80001 412.51144L51.80001 414.43332ZM51.80001 410.43332L41.784386 410.43332L41.784386 408.51144L51.80001 408.51144L51.80001 410.43332ZM43.55001 406.43332L41.784386 406.43332L41.784386 404.51144L43.55001 404.51144L43.55001 406.43332ZM51.80001 406.43332L44.534386 406.43332L44.534386 404.51144L51.80001 404.51144L51.80001 406.43332ZM49.721886 403.1052L49.440636 401.18332Q49.98751 401.05832 50.284386 400.68332Q50.58126 400.30832 50.58126 399.62082Q50.58126 398.88644 50.30001 398.51144Q50.11251 398.24582 49.784386 398.24582Q49.565636 398.24582 49.42501 398.38644Q49.284386 398.52707 49.17501 399.02707Q48.659386 401.3552 48.23751 401.9802Q47.64376 402.83957 46.596886 402.83957Q45.659386 402.83957 45.01876 402.1052Q44.378136 401.3552 44.378136 399.77707Q44.378136 398.2927 44.86251 397.57394Q45.346886 396.83957 46.30001 396.57394L46.628136 398.38644Q46.20626 398.49582 45.98751 398.82394Q45.753136 399.15207 45.753136 399.74582Q45.753136 400.51144 45.971886 400.83957Q46.11251 401.05832 46.36251 401.05832Q46.565636 401.05832 46.70626 400.8552Q46.89376 400.6052 47.253136 399.07394Q47.596886 397.52707 48.096886 396.9177Q48.61251 396.32394 49.534386 396.32394Q50.534386 396.32394 51.253136 397.1677Q51.971886 397.99582 51.971886 399.62082Q51.971886 401.1052 51.36251 401.9802Q50.753136 402.83957 49.721886 403.1052ZM49.48751 390.2302L49.815636 388.30832Q50.86251 388.68332 51.42501 389.4802Q51.971886 390.27707 51.971886 391.46457Q51.971886 393.3552 50.721886 394.27707Q49.73751 394.99582 48.221886 394.99582Q46.42501 394.99582 45.409386 394.05832Q44.378136 393.1052 44.378136 391.65207Q44.378136 390.0427 45.45626 389.1052Q46.51876 388.1677 48.721886 388.21457L48.721886 393.02707Q49.58126 392.99582 50.065636 392.55832Q50.534386 392.1052 50.534386 391.44894Q50.534386 390.99582 50.284386 390.69894Q50.034386 390.38644 49.48751 390.2302ZM47.55001 390.12082Q46.70626 390.13644 46.284386 390.5427Q45.846886 390.94894 45.846886 391.5427Q45.846886 392.1677 46.30001 392.58957Q46.76876 392.99582 47.55001 392.9802L47.55001 390.12082ZM46.690636 380.1052L47.034386 381.99582Q46.45626 382.08957 46.17501 382.43332Q45.89376 382.76144 45.89376 383.30832Q45.89376 384.02707 46.39376 384.44894Q46.878136 384.87082 48.034386 384.87082Q49.33126 384.87082 49.86251 384.44894Q50.39376 384.01144 50.39376 383.27707Q50.39376 382.7302 50.08126 382.38644Q49.76876 382.02707 49.01876 381.88644L49.33126 379.99582Q50.64376 380.2927 51.315636 381.13644Q51.971886 381.96457 51.971886 383.37082Q51.971886 384.96457 50.971886 385.9177Q49.95626 386.8552 48.17501 386.8552Q46.378136 386.8552 45.378136 385.90207Q44.378136 384.94894 44.378136 383.32394Q44.378136 382.01144 44.95626 381.2302Q45.51876 380.43332 46.690636 380.1052ZM48.065636 378.87082Q47.11251 378.87082 46.221886 378.40207Q45.315636 377.93332 44.846886 377.07394Q44.378136 376.19894 44.378136 375.13644Q44.378136 373.4802 45.45626 372.43332Q46.51876 371.38644 48.14376 371.38644Q49.80001 371.38644 50.89376 372.44894Q51.971886 373.51144 51.971886 375.12082Q51.971886 376.12082 51.51876 377.02707Q51.065636 377.93332 50.190636 378.40207Q49.315636 378.87082 48.065636 378.87082ZM48.17501 376.90207Q49.253136 376.90207 49.83126 376.38644Q50.39376 375.87082 50.39376 375.12082Q50.39376 374.37082 49.83126 373.87082Q49.253136 373.3552 48.159386 373.3552Q47.096886 373.3552 46.51876 373.87082Q45.940636 374.37082 45.940636 375.12082Q45.940636 375.87082 46.51876 376.38644Q47.096886 376.90207 48.17501 376.90207ZM51.80001 362.82394L51.80001 364.74582L48.096886 364.74582Q46.92501 364.74582 46.58126 364.87082Q46.221886 364.99582 46.034386 365.27707Q45.846886 365.5427 45.846886 365.93332Q45.846886 366.43332 46.128136 366.83957Q46.39376 367.2302 46.846886 367.38644Q47.30001 367.52707 48.51876 367.52707L51.80001 367.52707L51.80001 369.44894L44.534386 369.44894L44.534386 367.65207L45.61251 367.65207Q44.378136 366.71457 44.378136 365.26144Q44.378136 364.63644 44.61251 364.1052Q44.83126 363.57394 45.190636 363.30832Q45.55001 363.0427 46.003136 362.93332Q46.440636 362.82394 47.284386 362.82394L51.80001 362.82394ZM51.80001 353.77707L51.80001 355.55832L50.73751 355.55832Q51.36251 355.99582 51.67501 356.6052Q51.971886 357.21457 51.971886 357.82394Q51.971886 359.07394 50.95626 359.96457Q49.940636 360.8552 48.14376 360.8552Q46.30001 360.8552 45.346886 359.99582Q44.378136 359.12082 44.378136 357.7927Q44.378136 356.57394 45.39376 355.68332L41.784386 355.68332L41.784386 353.77707L51.80001 353.77707ZM48.01876 358.90207Q49.17501 358.90207 49.690636 358.57394Q50.440636 358.1052 50.440636 357.27707Q50.440636 356.62082 49.878136 356.15207Q49.315636 355.68332 48.190636 355.68332Q46.940636 355.68332 46.39376 356.13644Q45.846886 356.58957 45.846886 357.2927Q45.846886 357.9802 46.39376 358.44894Q46.92501 358.90207 48.01876 358.90207ZM49.721886 352.1052L49.440636 350.18332Q49.98751 350.05832 50.284386 349.68332Q50.58126 349.30832 50.58126 348.62082Q50.58126 347.88644 50.30001 347.51144Q50.11251 347.24582 49.784386 347.24582Q49.565636 347.24582 49.42501 347.38644Q49.284386 347.52707 49.17501 348.02707Q48.659386 350.3552 48.23751 350.9802Q47.64376 351.83957 46.596886 351.83957Q45.659386 351.83957 45.01876 351.1052Q44.378136 350.3552 44.378136 348.77707Q44.378136 347.2927 44.86251 346.57394Q45.346886 345.83957 46.30001 345.57394L46.628136 347.38644Q46.20626 347.49582 45.98751 347.82394Q45.753136 348.15207 45.753136 348.74582Q45.753136 349.51144 45.971886 349.83957Q46.11251 350.05832 46.36251 350.05832Q46.565636 350.05832 46.70626 349.8552Q46.89376 349.6052 47.253136 348.07394Q47.596886 346.52707 48.096886 345.9177Q48.61251 345.32394 49.534386 345.32394Q50.534386 345.32394 51.253136 346.1677Q51.971886 346.99582 51.971886 348.62082Q51.971886 350.1052 51.36251 350.9802Q50.753136 351.83957 49.721886 352.1052Z" fill-rule="nonzero"/><path fill="#60c85a" d="M103.64375 724.1375Q105.09688 724.1375 105.925 725.16876Q106.89375 726.40314 106.89375 729.2625Q106.89375 732.10626 105.90938 733.34064Q105.09688 734.3719 103.64375 734.3719Q102.175 734.3719 101.28438 733.2469Q100.39375 732.1219 100.39375 729.23126Q100.39375 726.40314 101.37813 725.16876Q102.19063 724.1375 103.64375 724.1375ZM103.64375 725.73126Q103.3 725.73126 103.01875 725.95Q102.75313 726.16876 102.59688 726.7469Q102.39375 727.4969 102.39375 729.2625Q102.39375 731.02814 102.56563 731.6844Q102.75313 732.34064 103.01875 732.5594Q103.3 732.77814 103.64375 732.77814Q103.9875 732.77814 104.25313 732.5594Q104.53438 732.34064 104.69063 731.7625Q104.89375 731.02814 104.89375 729.2625Q104.89375 727.4969 104.70625 726.84064Q104.53438 726.16876 104.25313 725.95Q103.9875 725.73126 103.64375 725.73126Z" fill-rule="nonzero"/><path fill="#60c85a" d="M90.87813 575.2854L90.87813 577.06665L84.14375 577.06665Q84.25313 576.051 84.8 575.1448Q85.34688 574.2385 86.97188 572.7385Q88.26875 571.5354 88.56563 571.0979Q88.95625 570.50415 88.95625 569.926Q88.95625 569.2854 88.6125 568.94165Q88.26875 568.5979 87.65938 568.5979Q87.05 568.5979 86.69063 568.9573Q86.34688 569.31665 86.28438 570.1604L84.37813 569.9729Q84.55 568.37915 85.44063 567.69165Q86.34688 567.00415 87.70625 567.00415Q89.19063 567.00415 90.03438 567.801Q90.87813 568.5979 90.87813 569.7854Q90.87813 570.4729 90.62813 571.0823Q90.39375 571.69165 89.87813 572.3635Q89.51875 572.801 88.6125 573.6448Q87.70625 574.4729 87.45625 574.75415Q87.22188 575.0198 87.06563 575.2854L90.87813 575.2854ZM92.425 574.4885L94.33125 574.2854Q94.425 574.94165 94.81563 575.31665Q95.22188 575.69165 95.75313 575.69165Q96.34688 575.69165 96.76875 575.2073Q97.19063 574.7229 97.19063 573.7385Q97.19063 572.81665 96.76875 572.3635Q96.3625 571.8948 95.69063 571.8948Q94.8625 571.8948 94.20625 572.62915L92.65938 572.3948L93.64375 567.176L98.72188 567.176L98.72188 568.9729L95.09688 568.9729L94.8 570.676Q95.44063 570.3635 96.1125 570.3635Q97.37813 570.3635 98.26875 571.301Q99.15938 572.2229 99.15938 573.7073Q99.15938 574.94165 98.44063 575.9104Q97.47188 577.2385 95.7375 577.2385Q94.34688 577.2385 93.47188 576.50415Q92.59688 575.75415 92.425 574.4885ZM103.64375 567.00415Q105.09688 567.00415 105.925 568.0354Q106.89375 569.2698 106.89375 572.12915Q106.89375 574.9729 105.90938 576.2073Q105.09688 577.2385 103.64375 577.2385Q102.175 577.2385 101.28438 576.1135Q100.39375 574.9885 100.39375 572.0979Q100.39375 569.2698 101.37813 568.0354Q102.19063 567.00415 103.64375 567.00415ZM103.64375 568.5979Q103.3 568.5979 103.01875 568.81665Q102.75313 569.0354 102.59688 569.6135Q102.39375 570.3635 102.39375 572.12915Q102.39375 573.8948 102.56563 574.551Q102.75313 575.2073 103.01875 575.426Q103.3 575.6448 103.64375 575.6448Q103.9875 575.6448 104.25313 575.426Q104.53438 575.2073 104.69063 574.62915Q104.89375 573.8948 104.89375 572.12915Q104.89375 570.3635 104.70625 569.7073Q104.53438 569.0354 104.25313 568.81665Q103.9875 568.5979 103.64375 568.5979Z" fill-rule="nonzero"/><path fill="#60c85a" d="M84.425 417.3552L86.33125 417.15207Q86.425 417.80832 86.81563 418.18332Q87.22188 418.55832 87.75313 418.55832Q88.34688 418.55832 88.76875 418.07394Q89.19063 417.58957 89.19063 416.6052Q89.19063 415.68332 88.76875 415.2302Q88.3625 414.76144 87.69063 414.76144Q86.8625 414.76144 86.20625 415.49582L84.65938 415.26144L85.64375 410.0427L90.72188 410.0427L90.72188 411.83957L87.09688 411.83957L86.8 413.5427Q87.44063 413.2302 88.1125 413.2302Q89.37813 413.2302 90.26875 414.1677Q91.15938 415.08957 91.15938 416.57394Q91.15938 417.80832 90.44063 418.77707Q89.47188 420.1052 87.7375 420.1052Q86.34688 420.1052 85.47188 419.37082Q84.59688 418.62082 84.425 417.3552ZM95.64375 409.87082Q97.09688 409.87082 97.925 410.90207Q98.89375 412.13644 98.89375 414.99582Q98.89375 417.83957 97.90938 419.07394Q97.09688 420.1052 95.64375 420.1052Q94.175 420.1052 93.28438 418.9802Q92.39375 417.8552 92.39375 414.96457Q92.39375 412.13644 93.37813 410.90207Q94.19063 409.87082 95.64375 409.87082ZM95.64375 411.46457Q95.3 411.46457 95.01875 411.68332Q94.75313 411.90207 94.59688 412.4802Q94.39375 413.2302 94.39375 414.99582Q94.39375 416.76144 94.56563 417.4177Q94.75313 418.07394 95.01875 418.2927Q95.3 418.51144 95.64375 418.51144Q95.9875 418.51144 96.25313 418.2927Q96.53438 418.07394 96.69063 417.49582Q96.89375 416.76144 96.89375 414.99582Q96.89375 413.2302 96.70625 412.57394Q96.53438 411.90207 96.25313 411.68332Q95.9875 411.46457 95.64375 411.46457ZM103.64375 409.87082Q105.09688 409.87082 105.925 410.90207Q106.89375 412.13644 106.89375 414.99582Q106.89375 417.83957 105.90938 419.07394Q105.09688 420.1052 103.64375 420.1052Q102.175 420.1052 101.28438 418.9802Q100.39375 417.8552 100.39375 414.96457Q100.39375 412.13644 101.37813 410.90207Q102.19063 409.87082 103.64375 409.87082ZM103.64375 411.46457Q103.3 411.46457 103.01875 411.68332Q102.75313 411.90207 102.59688 412.4802Q102.39375 413.2302 102.39375 414.99582Q102.39375 416.76144 102.56563 417.4177Q102.75313 418.07394 103.01875 418.2927Q103.3 418.51144 103.64375 418.51144Q103.9875 418.51144 104.25313 418.2927Q104.53438 418.07394 104.69063 417.49582Q104.89375 416.76144 104.89375 414.99582Q104.89375 413.2302 104.70625 412.57394Q104.53438 411.90207 104.25313 411.68332Q103.9875 411.46457 103.64375 411.46457Z" fill-rule="nonzero"/><path fill="#60c85a" d="M84.39375 254.70624L84.39375 252.90936L90.97188 252.90936L90.97188 254.31561Q90.14375 255.11249 89.3 256.6125Q88.47188 258.09686 88.01875 259.78436Q87.58125 261.47186 87.59688 262.8L85.7375 262.8Q85.78438 260.72186 86.59688 258.5656Q87.40938 256.39374 88.76875 254.70624L84.39375 254.70624ZM92.425 260.22186L94.33125 260.01874Q94.425 260.675 94.81563 261.05Q95.22188 261.425 95.75313 261.425Q96.34688 261.425 96.76875 260.9406Q97.19063 260.45624 97.19063 259.47186Q97.19063 258.55 96.76875 258.09686Q96.3625 257.6281 95.69063 257.6281Q94.8625 257.6281 94.20625 258.3625L92.65938 258.1281L93.64375 252.90936L98.72188 252.90936L98.72188 254.70624L95.09688 254.70624L94.8 256.40936Q95.44063 256.09686 96.1125 256.09686Q97.37813 256.09686 98.26875 257.03436Q99.15938 257.95624 99.15938 259.4406Q99.15938 260.675 98.44063 261.64374Q97.47188 262.97186 95.7375 262.97186Q94.34688 262.97186 93.47188 262.2375Q92.59688 261.4875 92.425 260.22186ZM103.64375 252.73749Q105.09688 252.73749 105.925 253.76874Q106.89375 255.00311 106.89375 257.8625Q106.89375 260.70624 105.90938 261.9406Q105.09688 262.97186 103.64375 262.97186Q102.175 262.97186 101.28438 261.84686Q100.39375 260.72186 100.39375 257.83124Q100.39375 255.00311 101.37813 253.76874Q102.19063 252.73749 103.64375 252.73749ZM103.64375 254.33124Q103.3 254.33124 103.01875 254.54999Q102.75313 254.76874 102.59688 255.34686Q102.39375 256.09686 102.39375 257.8625Q102.39375 259.6281 102.56563 260.28436Q102.75313 260.9406 103.01875 261.15936Q103.3 261.3781 103.64375 261.3781Q103.9875 261.3781 104.25313 261.15936Q104.53438 260.9406 104.69063 260.3625Q104.89375 259.6281 104.89375 257.8625Q104.89375 256.09686 104.70625 255.44061Q104.53438 254.76874 104.25313 254.54999Q103.9875 254.33124 103.64375 254.33124Z" fill-rule="nonzero"/><path fill="#60c85a" d="M81.31563 105.666664L79.39375 105.666664L79.39375 98.43229Q78.33125 99.416664 76.90938 99.885414L76.90938 98.135414Q77.65938 97.90104 78.53438 97.21354Q79.425 96.52604 79.75313 95.604164L81.31563 95.604164L81.31563 105.666664ZM87.64375 95.604164Q89.09688 95.604164 89.925 96.635414Q90.89375 97.86979 90.89375 100.729164Q90.89375 103.572914 89.90938 104.80729Q89.09688 105.83854 87.64375 105.83854Q86.175 105.83854 85.28438 104.71354Q84.39375 103.58854 84.39375 100.697914Q84.39375 97.86979 85.37813 96.635414Q86.19063 95.604164 87.64375 95.604164ZM87.64375 97.197914Q87.3 97.197914 87.01875 97.416664Q86.75313 97.635414 86.59688 98.21354Q86.39375 98.96354 86.39375 100.729164Q86.39375 102.49479 86.56563 103.15104Q86.75313 103.80729 87.01875 104.02604Q87.3 104.24479 87.64375 104.24479Q87.9875 104.24479 88.25313 104.02604Q88.53438 103.80729 88.69063 103.229164Q88.89375 102.49479 88.89375 100.729164Q88.89375 98.96354 88.70625 98.30729Q88.53438 97.635414 88.25313 97.416664Q87.9875 97.197914 87.64375 97.197914ZM95.64375 95.604164Q97.09688 95.604164 97.925 96.635414Q98.89375 97.86979 98.89375 100.729164Q98.89375 103.572914 97.90938 104.80729Q97.09688 105.83854 95.64375 105.83854Q94.175 105.83854 93.28438 104.71354Q92.39375 103.58854 92.39375 100.697914Q92.39375 97.86979 93.37813 96.635414Q94.19063 95.604164 95.64375 95.604164ZM95.64375 97.197914Q95.3 97.197914 95.01875 97.416664Q94.75313 97.635414 94.59688 98.21354Q94.39375 98.96354 94.39375 100.729164Q94.39375 102.49479 94.56563 103.15104Q94.75313 103.80729 95.01875 104.02604Q95.3 104.24479 95.64375 104.24479Q95.9875 104.24479 96.25313 104.02604Q96.53438 103.80729 96.69063 103.229164Q96.89375 102.49479 96.89375 100.729164Q96.89375 98.96354 96.70625 98.30729Q96.53438 97.635414 96.25313 97.416664Q95.9875 97.197914 95.64375 97.197914ZM103.64375 95.604164Q105.09688 95.604164 105.925 96.635414Q106.89375 97.86979 106.89375 100.729164Q106.89375 103.572914 105.90938 104.80729Q105.09688 105.83854 103.64375 105.83854Q102.175 105.83854 101.28438 104.71354Q100.39375 103.58854 100.39375 100.697914Q100.39375 97.86979 101.37813 96.635414Q102.19063 95.604164 103.64375 95.604164ZM103.64375 97.197914Q103.3 97.197914 103.01875 97.416664Q102.75313 97.635414 102.59688 98.21354Q102.39375 98.96354 102.39375 100.729164Q102.39375 102.49479 102.56563 103.15104Q102.75313 103.80729 103.01875 104.02604Q103.3 104.24479 103.64375 104.24479Q103.9875 104.24479 104.25313 104.02604Q104.53438 103.80729 104.69063 103.229164Q104.89375 102.49479 104.89375 100.729164Q104.89375 98.96354 104.70625 98.30729Q104.53438 97.635414 104.25313 97.416664Q103.9875 97.197914 103.64375 97.197914Z" fill-rule="nonzero"/><path fill="#60c85a" d="M558.25 60.8L558.25 43.6125L563.8125 43.6125Q566.9844 43.6125 567.9375 43.878124Q569.4219 44.26875 570.40625 45.565624Q571.40625 46.846874 571.40625 48.909374Q571.40625 50.4875 570.8281 51.565624Q570.2656 52.64375 569.375 53.26875Q568.4844 53.878124 567.5781 54.065624Q566.3281 54.315624 563.9844 54.315624L561.71875 54.315624L561.71875 60.8L558.25 60.8ZM561.71875 46.51875L561.71875 51.39375L563.6094 51.39375Q565.6719 51.39375 566.3594 51.128124Q567.0469 50.8625 567.4375 50.284374Q567.8281 49.70625 567.8281 48.95625Q567.8281 48.01875 567.28125 47.409374Q566.7344 46.8 565.8906 46.64375Q565.2656 46.51875 563.3906 46.51875L561.71875 46.51875ZM581.4375 56.83125L584.71875 57.39375Q584.0781 59.190624 582.7031 60.14375Q581.34375 61.08125 579.2969 61.08125Q576.0469 61.08125 574.5 58.95625Q573.2656 57.253124 573.2656 54.675Q573.2656 51.58125 574.875 49.83125Q576.5 48.065624 578.96875 48.065624Q581.75 48.065624 583.34375 49.909374Q584.9531 51.7375 584.8906 55.51875L576.6406 55.51875Q576.6719 56.9875 577.4375 57.8Q578.2031 58.6125 579.3281 58.6125Q580.1094 58.6125 580.625 58.190624Q581.15625 57.76875 581.4375 56.83125ZM581.625 53.503124Q581.5781 52.08125 580.875 51.346874Q580.1719 50.596874 579.1719 50.596874Q578.09375 50.596874 577.3906 51.378124Q576.6875 52.159374 576.7031 53.503124L581.625 53.503124ZM590.375 60.8L587.0781 60.8L587.0781 48.346874L590.1406 48.346874L590.1406 50.128124Q590.9219 48.8625 591.5469 48.471874Q592.1875 48.065624 592.9844 48.065624Q594.1094 48.065624 595.1406 48.690624L594.125 51.565624Q593.2969 51.01875 592.5781 51.01875Q591.8906 51.01875 591.40625 51.409374Q590.9219 51.784374 590.6406 52.784374Q590.375 53.784374 590.375 56.95625L590.375 60.8ZM594.78125 48.346874L596.6094 48.346874L596.6094 47.409374Q596.6094 45.846874 596.9375 45.08125Q597.28125 44.3 598.1719 43.815624Q599.0781 43.33125 600.4375 43.33125Q601.84375 43.33125 603.2031 43.753124L602.75 46.05Q601.96875 45.8625 601.2344 45.8625Q600.53125 45.8625 600.21875 46.190624Q599.90625 46.51875 599.90625 47.471874L599.90625 48.346874L602.3594 48.346874L602.3594 50.940624L599.90625 50.940624L599.90625 60.8L596.6094 60.8L596.6094 50.940624L594.78125 50.940624L594.78125 48.346874ZM603.46875 54.39375Q603.46875 52.753124 604.2656 51.221874Q605.0781 49.690624 606.5625 48.878124Q608.0469 48.065624 609.875 48.065624Q612.7031 48.065624 614.5 49.909374Q616.3125 51.7375 616.3125 54.534374Q616.3125 57.3625 614.4844 59.221874Q612.65625 61.08125 609.8906 61.08125Q608.1875 61.08125 606.625 60.315624Q605.0781 59.534374 604.2656 58.05Q603.46875 56.55 603.46875 54.39375ZM606.84375 54.58125Q606.84375 56.425 607.71875 57.409374Q608.59375 58.39375 609.8906 58.39375Q611.1719 58.39375 612.0469 57.409374Q612.9219 56.425 612.9219 54.55Q612.9219 52.721874 612.0469 51.7375Q611.1719 50.753124 609.8906 50.753124Q608.59375 50.753124 607.71875 51.7375Q606.84375 52.721874 606.84375 54.58125ZM622.375 60.8L619.0781 60.8L619.0781 48.346874L622.1406 48.346874L622.1406 50.128124Q622.9219 48.8625 623.5469 48.471874Q624.1875 48.065624 624.9844 48.065624Q626.1094 48.065624 627.1406 48.690624L626.125 51.565624Q625.2969 51.01875 624.5781 51.01875Q623.8906 51.01875 623.40625 51.409374Q622.9219 51.784374 622.6406 52.784374Q622.375 53.784374 622.375 56.95625L622.375 60.8ZM627.9844 48.346874L631.0156 48.346874L631.0156 50.05Q632.6406 48.065624 634.8906 48.065624Q636.09375 48.065624 636.96875 48.565624Q637.84375 49.05 638.40625 50.05Q639.2344 49.05 640.1719 48.565624Q641.125 48.065624 642.2031 48.065624Q643.5781 48.065624 644.5156 48.628124Q645.46875 49.190624 645.9375 50.26875Q646.28125 51.065624 646.28125 52.846874L646.28125 60.8L642.9844 60.8L642.9844 53.690624Q642.9844 51.83125 642.65625 51.3Q642.1875 50.596874 641.25 50.596874Q640.5469 50.596874 639.9375 51.01875Q639.3281 51.440624 639.0625 52.253124Q638.7969 53.065624 638.7969 54.815624L638.7969 60.8L635.5 60.8L635.5 53.971874Q635.5 52.159374 635.3281 51.64375Q635.15625 51.1125 634.78125 50.8625Q634.40625 50.596874 633.78125 50.596874Q633.0156 50.596874 632.40625 51.003124Q631.7969 51.409374 631.53125 52.190624Q631.2656 52.95625 631.2656 54.753124L631.2656 60.8L627.9844 60.8L627.9844 48.346874ZM651.6875 52.14375L648.7031 51.6125Q649.2031 49.8 650.4219 48.940624Q651.65625 48.065624 654.09375 48.065624Q656.2969 48.065624 657.375 48.596874Q658.4531 49.1125 658.8906 49.925Q659.3281 50.721874 659.3281 52.8625L659.2969 56.70625Q659.2969 58.346874 659.4531 59.128124Q659.6094 59.909374 660.0469 60.8L656.78125 60.8Q656.65625 60.471874 656.46875 59.83125Q656.3906 59.534374 656.34375 59.440624Q655.5 60.253124 654.53125 60.675Q653.5781 61.08125 652.5 61.08125Q650.5781 61.08125 649.46875 60.034374Q648.3594 58.9875 648.3594 57.39375Q648.3594 56.346874 648.8594 55.51875Q649.3594 54.690624 650.2656 54.253124Q651.1875 53.815624 652.8906 53.4875Q655.2031 53.05 656.09375 52.675L656.09375 52.346874Q656.09375 51.39375 655.625 51.003124Q655.15625 50.596874 653.8594 50.596874Q652.96875 50.596874 652.46875 50.940624Q651.9844 51.284374 651.6875 52.14375ZM656.09375 54.815624Q655.4531 55.034374 654.0781 55.33125Q652.71875 55.6125 652.2969 55.89375Q651.65625 56.3625 651.65625 57.065624Q651.65625 57.753124 652.1719 58.253124Q652.6875 58.753124 653.4844 58.753124Q654.375 58.753124 655.1719 58.175Q655.78125 57.721874 655.96875 57.08125Q656.09375 56.659374 656.09375 55.471874L656.09375 54.815624ZM673.5469 60.8L670.25 60.8L670.25 54.440624Q670.25 52.425 670.03125 51.846874Q669.8281 51.253124 669.34375 50.925Q668.875 50.596874 668.21875 50.596874Q667.3594 50.596874 666.6719 51.065624Q666.0 51.534374 665.75 52.315624Q665.5 53.08125 665.5 55.159374L665.5 60.8L662.2031 60.8L662.2031 48.346874L665.2656 48.346874L665.2656 50.175Q666.8906 48.065624 669.3594 48.065624Q670.4531 48.065624 671.34375 48.471874Q672.25 48.8625 672.71875 49.471874Q673.1875 50.08125 673.3594 50.8625Q673.5469 51.628124 673.5469 53.065624L673.5469 60.8ZM688.0781 52.034374L684.8281 52.6125Q684.6719 51.64375 684.0781 51.159374Q683.5 50.659374 682.5781 50.659374Q681.34375 50.659374 680.6094 51.51875Q679.8906 52.3625 679.8906 54.346874Q679.8906 56.565624 680.625 57.4875Q681.375 58.39375 682.625 58.39375Q683.5625 58.39375 684.15625 57.8625Q684.7656 57.33125 685.0 56.034374L688.2344 56.58125Q687.7344 58.8 686.2969 59.940624Q684.875 61.08125 682.46875 61.08125Q679.75 61.08125 678.125 59.3625Q676.5 57.628124 676.5 54.58125Q676.5 51.503124 678.125 49.784374Q679.75 48.065624 682.53125 48.065624Q684.8125 48.065624 686.1406 49.05Q687.4844 50.034374 688.0781 52.034374ZM697.4375 56.83125L700.71875 57.39375Q700.0781 59.190624 698.7031 60.14375Q697.34375 61.08125 695.2969 61.08125Q692.0469 61.08125 690.5 58.95625Q689.2656 57.253124 689.2656 54.675Q689.2656 51.58125 690.875 49.83125Q692.5 48.065624 694.96875 48.065624Q697.75 48.065624 699.34375 49.909374Q700.9531 51.7375 700.8906 55.51875L692.6406 55.51875Q692.6719 56.9875 693.4375 57.8Q694.2031 58.6125 695.3281 58.6125Q696.1094 58.6125 696.625 58.190624Q697.15625 57.76875 697.4375 56.83125ZM697.625 53.503124Q697.5781 52.08125 696.875 51.346874Q696.1719 50.596874 695.1719 50.596874Q694.09375 50.596874 693.3906 51.378124Q692.6875 52.159374 692.7031 53.503124L697.625 53.503124Z" fill-rule="nonzero"/></svg>